# xmcd
# 
# Track frame offsets:
#     150
#     4854
#     26186
#     46960
#     65394
#     78386
#     87637
#     102490
#     122009
#     130164
#     137757
#     150677
#     166674
#     178544
#     187485
#     202494
#     212358
#     237686
# 
# Disc length: 3433
# 
# Revision: 0
# Processed by: cddbd v1.5.2PL0 Copyright (c) Steve Scherf et al.
# Submitted via: fre:ac v1.0.31
# 
DISCID=090d6712
DTITLE=Zagyva Banda - Talpalávaló IV. Felcsíki Népzene táncoktatáshoz
DYEAR=2018
DGENRE=Folk
TTITLE0=Domokosi sörkertbe'
TTITLE1=Csárdás I.
TTITLE2=Csárdás II.
TTITLE3=Sebes csárdás I.
TTITLE4=Sebes csárdás II.
TTITLE5=Cepper
TTITLE6=Féloláhos
TTITLE7=Verbunk
TTITLE8=Zsuka
TTITLE9=Oroszzsuka
TTITLE10=Icike picike
TTITLE11=Kezes
TTITLE12=Zsidós
TTITLE13=Változtatós
TTITLE14=Zsebkendős
TTITLE15=Gólyás
TTITLE16=Hejsza
TTITLE17=Örömanya tánc és Medvés
EXTD=Vocals – Fundák-Kaszai Lili*\nVocals, Ütőgardon – Kádár Ignác\nViolin – Boda Gellért\nViola [Kontra] – Szabó András (4]\nEngineer – Dióssy D. Ákos
EXTT0=
EXTT1=
EXTT2=
EXTT3=
EXTT4=
EXTT5=
EXTT6=
EXTT7=
EXTT8=
EXTT9=
EXTT10=
EXTT11=
EXTT12=
EXTT13=
EXTT14=
EXTT15=
EXTT16=
EXTT17=
PLAYORDER=
